<svg width="24" height="28" viewBox="0 0 24 28" fill="none" xmlns="http://www.w3.org/2000/svg">
<line x1="4.5" y1="9.5" x2="15.5" y2="9.5" stroke="white" stroke-linecap="round" stroke-linejoin="round"/>
<line x1="4.5" y1="15.5" x2="10.5" y2="15.5" stroke="white" stroke-linecap="round" stroke-linejoin="round"/>
<line x1="4.5" y1="12.5" x2="15.5" y2="12.5" stroke="white" stroke-linecap="round" stroke-linejoin="round"/>
<rect x="1" y="1" width="18" height="26" stroke="white" stroke-linejoin="round"/>
<path d="M19.8344 2.54314C20.0066 2.37094 20.211 2.23435 20.436 2.14116C20.661 2.04796 20.9021 2 21.1456 2C21.3891 2 21.6303 2.04796 21.8553 2.14116C22.0802 2.23435 22.2847 2.37094 22.4569 2.54314C22.6291 2.71533 22.7657 2.91976 22.8588 3.14474C22.952 3.36973 23 3.61086 23 3.85439C23 4.09791 22.952 4.33904 22.8588 4.56403C22.7657 4.78901 22.6291 4.99344 22.4569 5.16563L13.6059 14.0166L10 15L10.9834 11.3941L19.8344 2.54314Z" fill="black" stroke="white" stroke-linecap="round" stroke-linejoin="round"/>
<line x1="4.5" y1="6.5" x2="9.5" y2="6.5" stroke="white" stroke-linecap="round" stroke-linejoin="round"/>
<line x1="11.5" y1="6.5" x2="13.5" y2="6.5" stroke="white" stroke-linecap="round" stroke-linejoin="round"/>
</svg>
